<?xml version="1.0" encoding="UTF-8" standalone="no"?>
<svg
   viewBox="0 0 512 512"
   style="height: 512px; width: 512px;"
   version="1.1"
   id="svg2"
   sodipodi:docname="any.svg"
   inkscape:version="1.3.1 (91b66b0783, 2023-11-16)"
   xmlns:inkscape="http://www.inkscape.org/namespaces/inkscape"
   xmlns:sodipodi="http://sodipodi.sourceforge.net/DTD/sodipodi-0.dtd"
   xmlns="http://www.w3.org/2000/svg"
   xmlns:svg="http://www.w3.org/2000/svg">
  <defs
     id="defs2" />
  <sodipodi:namedview
     id="namedview2"
     pagecolor="#ffffff"
     bordercolor="#000000"
     borderopacity="0.25"
     inkscape:showpageshadow="2"
     inkscape:pageopacity="0.0"
     inkscape:pagecheckerboard="0"
     inkscape:deskcolor="#d1d1d1"
     inkscape:zoom="1.6035156"
     inkscape:cx="256"
     inkscape:cy="256"
     inkscape:window-width="1920"
     inkscape:window-height="1017"
     inkscape:window-x="-8"
     inkscape:window-y="-8"
     inkscape:window-maximized="1"
     inkscape:current-layer="svg2" />
  <g
     class=""
     transform="translate(8,1)"
     style=""
     id="g2">
    <path
       d="M256 38.013c-22.458 0-66.472 110.3-84.64 123.502-18.17 13.2-136.674 20.975-143.614 42.334-6.94 21.358 84.362 97.303 91.302 118.662 6.94 21.36-22.286 136.465-4.116 149.665 18.17 13.2 118.61-50.164 141.068-50.164 22.458 0 122.9 63.365 141.068 50.164 18.17-13.2-11.056-128.306-4.116-149.665 6.94-21.36 98.242-97.304 91.302-118.663-6.94-21.36-125.444-29.134-143.613-42.335-18.168-13.2-62.182-123.502-84.64-123.502z"
       fill="#fff"
       fill-opacity="1"
       id="path2" />
  </g>
</svg>
