<?xml version="1.0" encoding="UTF-8" standalone="no"?>
<svg
   viewBox="0 0 512 512"
   style="height: 512px; width: 512px;"
   version="1.1"
   id="svg2"
   sodipodi:docname="notice.svg"
   inkscape:version="1.3.1 (91b66b0783, 2023-11-16)"
   xmlns:inkscape="http://www.inkscape.org/namespaces/inkscape"
   xmlns:sodipodi="http://sodipodi.sourceforge.net/DTD/sodipodi-0.dtd"
   xmlns="http://www.w3.org/2000/svg"
   xmlns:svg="http://www.w3.org/2000/svg">
  <defs
     id="defs2" />
  <sodipodi:namedview
     id="namedview2"
     pagecolor="#ffffff"
     bordercolor="#000000"
     borderopacity="0.25"
     inkscape:showpageshadow="2"
     inkscape:pageopacity="0.0"
     inkscape:pagecheckerboard="0"
     inkscape:deskcolor="#d1d1d1"
     inkscape:zoom="1.6035156"
     inkscape:cx="256"
     inkscape:cy="256"
     inkscape:window-width="1920"
     inkscape:window-height="1017"
     inkscape:window-x="-8"
     inkscape:window-y="-8"
     inkscape:window-maximized="1"
     inkscape:current-layer="svg2" />
  <g
     class=""
     transform="translate(8,1)"
     style=""
     id="g2">
    <path
       d="M273.063 47.188c-1.974.032-3.98.123-6 .25-60.62 3.805-100.33 35.933-123.563 83.78-22.862 47.083-28.442 109.71-17.125 172.47l1.75 1.75-1.406 5.718c-3.43 14.203-1.17 31.297 4.28 45.97 5.45 14.67 14.52 26.75 20.594 30.78l5.03 3.344-.374 6c-1.355 21.968 6.887 38.96 18.438 50.688 11.55 11.726 26.687 17.447 36.593 16.843 10.25-.623 15.605-3.796 21.25-10 5.648-6.202 10.894-16.054 17.064-28.28 12.34-24.452 28.935-57.856 68.094-87.094 63.353-47.305 82.793-122.987 70-185.656-6.397-31.334-20.867-59.136-41.407-78.313-17.97-16.78-40.38-27.204-67.374-28.187-1.928-.07-3.87-.095-5.844-.063zm-6.875 54.156c1.282-.03 2.564-.024 3.843 0 26.317.48 51.695 12.228 69.314 35.437A9 9 0 1 1 325 147.657c-25.65-33.79-69.065-37.748-104.344-12.437-18.275 13.11-34.26 34.452-43.312 64.343 12.93-13.697 27.912-27.055 44.5-35.532 9.905-5.06 20.616-8.356 31.656-8.405 3.68-.016 7.393.332 11.125 1.094 14.928 3.046 29.34 12.706 42.188 29.686a9.003 9.003 0 1 1-14.375 10.844c-10.987-14.52-21.443-20.872-31.407-22.906-9.962-2.034-20.222.21-31 5.72-21.54 11.006-43.38 35.2-59.5 54.686-1.83 18.726-1.345 39.794 2.126 63.25 12.828.502 23.317 3.768 30.97 9.72 9.264 7.204 13.86 17.8 14.53 28.25 1.343 20.897-10.62 42.6-30.625 51.06a9.01 9.01 0 0 1-7.03-16.592c11.446-4.842 20.493-20.77 19.688-33.313-.403-6.27-2.644-11.314-7.625-15.188-4.982-3.873-13.416-6.82-27.22-6.062a9 9 0 0 1-9.374-7.47c-16.06-93.725 12.22-157.702 54.186-187.81 17.214-12.35 36.787-18.802 56.03-19.25z"
       fill="#fff"
       fill-opacity="1"
       id="path2" />
  </g>
</svg>
