<?xml version="1.0" encoding="UTF-8" standalone="no"?>
<svg
   viewBox="0 0 512 512"
   style="height: 512px; width: 512px;"
   version="1.1"
   id="svg2"
   sodipodi:docname="stab.svg"
   inkscape:version="1.3.1 (91b66b0783, 2023-11-16)"
   xmlns:inkscape="http://www.inkscape.org/namespaces/inkscape"
   xmlns:sodipodi="http://sodipodi.sourceforge.net/DTD/sodipodi-0.dtd"
   xmlns="http://www.w3.org/2000/svg"
   xmlns:svg="http://www.w3.org/2000/svg">
  <defs
     id="defs2" />
  <sodipodi:namedview
     id="namedview2"
     pagecolor="#ffffff"
     bordercolor="#000000"
     borderopacity="0.25"
     inkscape:showpageshadow="2"
     inkscape:pageopacity="0.0"
     inkscape:pagecheckerboard="0"
     inkscape:deskcolor="#d1d1d1"
     inkscape:zoom="1.6035156"
     inkscape:cx="256"
     inkscape:cy="256"
     inkscape:window-width="1920"
     inkscape:window-height="1017"
     inkscape:window-x="-8"
     inkscape:window-y="-8"
     inkscape:window-maximized="1"
     inkscape:current-layer="svg2" />
  <g
     class=""
     transform="translate(8,1)"
     style=""
     id="g2">
    <path
       d="M311.96 258.5L105.55 484l-30-28.31L288.92 236.7zM139.77 417.7a7.41 7.41 0 1 0 .3 10.47 7.41 7.41 0 0 0-.3-10.47zm23.74-25.14a7.41 7.41 0 1 0 .3 10.47 7.41 7.41 0 0 0-.29-10.44zm23.76-25.11a7.41 7.41 0 1 0 .3 10.47 7.41 7.41 0 0 0-.3-10.47zm23.74-25.15a7.41 7.41 0 1 0 .3 10.47 7.41 7.41 0 0 0-.3-10.47zm23.76-25.14a7.41 7.41 0 1 0 .3 10.47 7.41 7.41 0 0 0-.3-10.47zm23.74-25.14a7.41 7.41 0 1 0 .3 10.47 7.41 7.41 0 0 0-.31-10.47zm23.74-25.14a7.41 7.41 0 1 0 .3 10.47 7.41 7.41 0 0 0-.3-10.47zM52.67 433.13l-28.26-30 225.85-206 21.71 23.02zm36.9-63.05a7.41 7.41 0 1 0-.32 10.47 7.41 7.41 0 0 0 .33-10.47zm25.2-23.7a7.41 7.41 0 1 0-.32 10.47 7.41 7.41 0 0 0 .32-10.47zm25.17-23.68a7.41 7.41 0 1 0-.32 10.47 7.41 7.41 0 0 0 .32-10.47zm25.18-23.7a7.41 7.41 0 1 0-.32 10.47 7.41 7.41 0 0 0 .32-10.5zm25.18-23.7a7.41 7.41 0 1 0-.32 10.47 7.41 7.41 0 0 0 .32-10.5zm25.18-23.7a7.41 7.41 0 1 0-.32 10.47 7.41 7.41 0 0 0 .32-10.51zm25.18-23.7a7.41 7.41 0 1 0-.32 10.47 7.41 7.41 0 0 0 .32-10.51zm63.89 1.63c12.87-10.8 25.09-20.92 37-30.79C425.04 129.57 475.68 87.63 487.59 28c-8.36 6.7-63.45 50.38-92.82 58.58l-114 119.47z"
       fill="#fff"
       fill-opacity="1"
       id="path2" />
  </g>
</svg>
