<?xml version="1.0" encoding="UTF-8" standalone="no"?>
<svg
   viewBox="0 0 512 512"
   style="height: 512px; width: 512px;"
   version="1.1"
   id="svg2"
   sodipodi:docname="official.svg"
   inkscape:version="1.3.1 (91b66b0783, 2023-11-16)"
   xmlns:inkscape="http://www.inkscape.org/namespaces/inkscape"
   xmlns:sodipodi="http://sodipodi.sourceforge.net/DTD/sodipodi-0.dtd"
   xmlns="http://www.w3.org/2000/svg"
   xmlns:svg="http://www.w3.org/2000/svg">
  <defs
     id="defs2" />
  <sodipodi:namedview
     id="namedview2"
     pagecolor="#ffffff"
     bordercolor="#000000"
     borderopacity="0.25"
     inkscape:showpageshadow="2"
     inkscape:pageopacity="0.0"
     inkscape:pagecheckerboard="0"
     inkscape:deskcolor="#d1d1d1"
     inkscape:zoom="1.6035156"
     inkscape:cx="256"
     inkscape:cy="256"
     inkscape:window-width="1920"
     inkscape:window-height="1017"
     inkscape:window-x="-8"
     inkscape:window-y="-8"
     inkscape:window-maximized="1"
     inkscape:current-layer="svg2" />
  <g
     class=""
     transform="translate(-4,0)"
     style=""
     id="g2">
    <path
       d="M137.75 17.28l-15.313 78.782 20.313 56.876h45.97L137.75 17.28zM74.5 19L20 378.156v116.156h208L210.125 386.5H113.28l-2.218-6.156-25.78-71.594 17.562-6.344 23.562 65.406h90.344l230.688-2.968 9.812-33.406H278.5V312.75h184.22l7.374-25.156L415.53 209.5H291.47l-20.345-37.594h-75.28l-.095-.28h-46.313L159.563 200l-17.593 6.28-26.532-74.25-.126.72L74.5 19zm133.375 178.22h56.094l21.405 38.874-26.094-.438-51.405-38.437zm230.47 12.28l38.53 55.094L493.03 209.5h-54.686zm-82.814 15.938c6.613 0 11.97 5.356 11.97 11.968 0 6.613-5.357 11.97-11.97 11.97-6.61 0-11.967-5.357-11.967-11.97 0-6.612 5.356-11.97 11.968-11.97zm44.595 0c6.612 0 12 5.356 12 11.968 0 6.613-5.388 11.97-12 11.97s-11.97-5.357-11.97-11.97c0-6.612 5.358-11.97 11.97-11.97zm-66.188 29.187c6.612 0 11.97 5.356 11.97 11.97 0 6.61-5.358 11.967-11.97 11.967-6.61 0-11.968-5.356-11.968-11.968 0-6.613 5.356-11.97 11.967-11.97zm43.125 0c6.612 0 12 5.356 12 11.97 0 6.61-5.388 11.967-12 11.967-6.61 0-11.968-5.356-11.968-11.968 0-6.613 5.357-11.97 11.97-11.97zm42.063 0c6.612 0 11.97 5.356 11.97 11.97 0 6.61-5.358 11.967-11.97 11.967-6.612 0-11.97-5.356-11.97-11.968 0-6.613 5.358-11.97 11.97-11.97z"
       fill="#fff"
       fill-opacity="1"
       data-darkreader-inline-fill=""
       style="--darkreader-inline-fill: #1d1c1a;"
       id="path2" />
  </g>
</svg>
