<?xml version="1.0" encoding="UTF-8" standalone="no"?>
<svg
   viewBox="0 0 512 512"
   style="height: 512px; width: 512px;"
   version="1.1"
   id="svg2"
   sodipodi:docname="peasant.svg"
   inkscape:version="1.3.1 (91b66b0783, 2023-11-16)"
   xmlns:inkscape="http://www.inkscape.org/namespaces/inkscape"
   xmlns:sodipodi="http://sodipodi.sourceforge.net/DTD/sodipodi-0.dtd"
   xmlns="http://www.w3.org/2000/svg"
   xmlns:svg="http://www.w3.org/2000/svg">
  <defs
     id="defs2" />
  <sodipodi:namedview
     id="namedview2"
     pagecolor="#ffffff"
     bordercolor="#000000"
     borderopacity="0.25"
     inkscape:showpageshadow="2"
     inkscape:pageopacity="0.0"
     inkscape:pagecheckerboard="0"
     inkscape:deskcolor="#d1d1d1"
     inkscape:zoom="1.6035156"
     inkscape:cx="256"
     inkscape:cy="256"
     inkscape:window-width="1920"
     inkscape:window-height="1017"
     inkscape:window-x="-8"
     inkscape:window-y="-8"
     inkscape:window-maximized="1"
     inkscape:current-layer="svg2" />
  <g
     class=""
     transform="translate(-4,0)"
     style=""
     id="g2">
    <path
       d="M379.42 24.066l-28.059 87.407 28.268 5.941-3.098 15.352-52.25 47.843-51.5-43.125-23.404-4.093c8.217-14.33 14.683-32.77 16.404-49.594 10.02-2.28 34.92-5.675 46.094-10.059-4.997-10.285-30.197-16.906-48.7-16.316-1.733-20.713-8.88-29.054-34.155-27.902-25.276 1.151-32.972 6.601-30.16 36.423-18.866 4.127-38.097 12.616-39.74 27.084 7.87-.307 32.96-2.896 40.724-3.011.66 14.1 4.4 27.847 9.97 36.375l-35.158-6.125L106 195.922l77.344 55.875 1.625 16.844-34.19 215.75h38.375l38.315-169.25 47.873 169.25h37.47l-3.564-16.407 17.094 16.407 63.062-322.532c5.01-4.54 9.265-8.481 12.094-11.312.177-10.537-2.537-18.942-5.094-24.5l.971-4.902 27.238 5.724 8.444-93.117-22.846 68.781-10.848-2.256 6.635-72.658-21.568 69.55-11.217-2.333 6.207-70.77zm26.578 3.553l.002-.01h-.002v.01zM182.844 153.39l.344 64.095-31.5-23.75 31.156-40.345zm88.031 21.252l50.875 45.937s22.993-19.456 44.875-38.531l-57.438 285.562-42.812-197.529 4.5-95.44z"
       fill="#fff"
       fill-opacity="1"
       data-darkreader-inline-fill=""
       style="--darkreader-inline-fill: #1d1c1a;"
       id="path2" />
  </g>
</svg>
