<?xml version="1.0" encoding="UTF-8" standalone="no"?>
<svg
   viewBox="0 0 512 512"
   style="height: 512px; width: 512px;"
   version="1.1"
   id="svg2"
   sodipodi:docname="politician.svg"
   inkscape:version="1.3.1 (91b66b0783, 2023-11-16)"
   xmlns:inkscape="http://www.inkscape.org/namespaces/inkscape"
   xmlns:sodipodi="http://sodipodi.sourceforge.net/DTD/sodipodi-0.dtd"
   xmlns="http://www.w3.org/2000/svg"
   xmlns:svg="http://www.w3.org/2000/svg">
  <defs
     id="defs2" />
  <sodipodi:namedview
     id="namedview2"
     pagecolor="#ffffff"
     bordercolor="#000000"
     borderopacity="0.25"
     inkscape:showpageshadow="2"
     inkscape:pageopacity="0.0"
     inkscape:pagecheckerboard="0"
     inkscape:deskcolor="#d1d1d1"
     inkscape:zoom="1.6035156"
     inkscape:cx="256"
     inkscape:cy="256"
     inkscape:window-width="1920"
     inkscape:window-height="1017"
     inkscape:window-x="-8"
     inkscape:window-y="-8"
     inkscape:window-maximized="1"
     inkscape:current-layer="svg2" />
  <g
     class=""
     transform="translate(-4,0)"
     style=""
     id="g2">
    <path
       d="M255.594 19.406l-15.78 59.125c5.184-.58 10.44-.874 15.78-.874 5.338 0 10.595.293 15.78.875l-15.78-59.124zm0 76.97c-57.894 0-106.156 40.154-118.656 94.186H374.25c-12.5-54.032-60.762-94.187-118.656-94.187zM19.406 209.25v33.53h472.406v-33.53H19.406zM71.5 261.47v159.124h50.406V261.47H71.5zm105.97 0v159.124h50.405V261.47H177.47zm105.936 0v159.124h50.406V261.47h-50.406zm105.938 0v159.124h50.406V261.47h-50.406zm-161.78 177.655l-31.658 56.656h120.5l-32.062-56.655h-56.78zm-208.158.156v33.533h167.938l18.72-33.532H19.405zm286.531 0l18.97 33.533h166.906V439.28H305.938z"
       fill="#fff"
       fill-opacity="1"
       data-darkreader-inline-fill=""
       style="--darkreader-inline-fill: #1d1c1a;"
       id="path2" />
  </g>
</svg>
