<svg xmlns="http://www.w3.org/2000/svg" viewBox="0 0 512 512"><path d="m77.505 314.56 26.995 26.995 67.341-67.341 36.918 36.918 22.219-22.219c35.637 37.903 53.983 69.512 60.728 93.718 3.795 13.619 4.124 24.712 2.047 33.754-23.377 6.633-55.12.133-77.836-22.583l-13.216 13.216c37.66 37.66 96.612 41.469 126.324 9.56 14.856-15.955 20.669-40.763 12.348-70.628-7.968-28.598-28.256-62.423-65.508-101.924l16.504-16.504-63.914-63.914-150.95 150.95ZM325.72 71.885l12.7 12.7-81.278 81.278 31.962 31.963 81.277-81.277 12.697 12.698 13.216-13.216-12.698-12.697 16.639-16.639 12.697 12.698 13.214-13.214-12.698-12.697 13.737-13.737-31.964-31.963-13.734 13.734-12.7-12.7-13.215 13.216 12.7 12.7-16.637 16.637-12.7-12.7-13.216 13.216zM83.698 388.79l59.308 59.308 88.146-88.146-59.31-59.31-88.146 88.147Zm160.504-113.1 18.441-18.44c35.637 37.901 53.983 69.51 60.728 93.718 7.068 25.368 2.124 41.976-8.024 52.874-2.786 2.991-6.108 5.543-9.822 7.665 4.435-7.993 6.49-18.201 4.871-31.31-.219-.855-.445-1.718-.687-2.582-7.967-28.6-28.256-62.423-65.508-101.925zM171.04 438.681c37.66 37.66 96.61 41.47 126.323 9.561a56.546 56.546 0 0 0 5.565-7.036c-19.406 13.349-45.89 16.033-71.245 8.386-16.545-2.54-33.648-10.348-47.428-24.127l-13.216 13.216z"/></svg>