<svg xmlns="http://www.w3.org/2000/svg" xml:space="preserve" width="800" height="800" viewBox="0 0 512 512"><path d="m483.338 435.827-31.204-236.43c-5.141-31.826-32.612-55.217-64.855-55.217h-57.173c-29.617 0-33.833-14.237-33.833-30.883 0-17.046 4.86-23.169 16.658-24.804 20.899-2.569 37.101-20.361 37.101-41.958v-4.23C350.033 18.939 331.093 0 307.729 0H204.272c-23.365 0-42.304 18.939-42.304 42.304v4.23c0 21.597 16.201 39.388 37.1 41.958 11.789 1.635 16.66 7.758 16.66 24.804 0 16.646-4.217 30.883-33.834 30.883h-57.172c-32.244 0-59.714 23.391-64.856 55.217l-31.203 236.43a65.7 65.7 0 0 0 14.833 53.066A65.677 65.677 0 0 0 93.513 512h324.974a65.696 65.696 0 0 0 64.851-76.173z" style="fill:#fff"/></svg>